<svg xmlns="http://www.w3.org/2000/svg" xmlns:xlink="http://www.w3.org/1999/xlink" width="2000" zoomAndPan="magnify" viewBox="0 0 1500 149.999998" height="200" preserveAspectRatio="xMidYMid meet" version="1.0"><defs><g/><clipPath id="71124af5d9"><path d="M 623 1.160156 L 891 1.160156 L 891 148.910156 L 623 148.910156 Z M 623 1.160156 " clip-rule="nonzero"/></clipPath><clipPath id="8819968f31"><path d="M 562.285156 17 L 589 17 L 589 44 L 562.285156 44 Z M 562.285156 17 " clip-rule="nonzero"/></clipPath><clipPath id="31fa3faf93"><path d="M 580.9375 33.710938 L 595.285156 33.710938 L 595.285156 47.800781 L 580.9375 47.800781 Z M 580.9375 33.710938 " clip-rule="nonzero"/></clipPath><clipPath id="a77d963161"><path d="M 580 15.550781 L 592 15.550781 L 592 26 L 580 26 Z M 580 15.550781 " clip-rule="nonzero"/></clipPath><clipPath id="c73d76f2a5"><path d="M 911 111 L 937.617188 111 L 937.617188 138 L 911 138 Z M 911 111 " clip-rule="nonzero"/></clipPath><clipPath id="2293455512"><path d="M 904.710938 127.558594 L 919.0625 127.558594 L 919.0625 141.648438 L 904.710938 141.648438 Z M 904.710938 127.558594 " clip-rule="nonzero"/></clipPath><clipPath id="397b719adc"><path d="M 908 109.398438 L 920 109.398438 L 920 120 L 908 120 Z M 908 109.398438 " clip-rule="nonzero"/></clipPath></defs><rect x="-150" width="1800" fill="#ffffff" y="-15" height="179.999997" fill-opacity="1"/><rect x="-150" width="1800" fill="#f1d3d0" y="-15" height="179.999997" fill-opacity="1"/><g clip-path="url(#71124af5d9)"><path fill="#ffffff" d="M 624.316406 112.648438 C 626.125 119.011719 631.40625 124.171875 640.019531 127.976562 C 644.464844 129.941406 649.699219 131.503906 655.671875 132.65625 C 653.71875 133.554688 650.808594 133.96875 646.050781 134.40625 L 646.050781 134.410156 C 650.671875 134.835938 653.550781 135.234375 655.5 136.082031 C 656.320312 136.4375 656.980469 136.875 657.53125 137.425781 C 659.386719 139.285156 659.941406 142.335938 660.546875 148.90625 L 660.554688 148.90625 C 660.964844 144.429688 661.355469 141.589844 662.144531 139.644531 C 662.15625 139.613281 662.167969 139.582031 662.179688 139.554688 C 662.195312 139.523438 662.207031 139.488281 662.222656 139.457031 C 662.230469 139.4375 662.242188 139.414062 662.25 139.394531 C 662.269531 139.351562 662.289062 139.308594 662.308594 139.265625 C 662.328125 139.222656 662.347656 139.183594 662.367188 139.140625 C 662.695312 138.464844 663.089844 137.90625 663.570312 137.425781 C 665.148438 135.847656 667.578125 135.210938 672.289062 134.683594 C 672.414062 134.691406 672.539062 134.703125 672.664062 134.710938 C 686.042969 135.527344 701.160156 134.855469 717.59375 132.71875 C 734.601562 130.507812 752.289062 126.8125 770.160156 121.742188 C 788.03125 116.667969 805.015625 110.515625 820.648438 103.457031 C 835.753906 96.636719 848.964844 89.265625 859.917969 81.539062 C 870.882812 73.804688 879.039062 66.105469 884.152344 58.652344 C 889.480469 50.886719 891.265625 43.722656 889.457031 37.359375 C 887.652344 30.996094 882.367188 25.839844 873.753906 22.03125 C 870.117188 20.425781 865.953125 19.085938 861.289062 18.019531 C 863.203125 16.632812 866.261719 16.136719 872.066406 15.601562 L 872.066406 15.597656 C 865.492188 14.992188 862.445312 14.4375 860.585938 12.578125 C 860.105469 12.097656 859.714844 11.539062 859.386719 10.863281 C 859.363281 10.820312 859.347656 10.78125 859.324219 10.738281 C 859.304688 10.695312 859.285156 10.652344 859.265625 10.609375 C 859.257812 10.589844 859.25 10.566406 859.238281 10.546875 C 859.226562 10.511719 859.210938 10.480469 859.199219 10.449219 C 859.183594 10.421875 859.175781 10.390625 859.164062 10.363281 C 858.371094 8.414062 857.980469 5.574219 857.570312 1.097656 L 857.566406 1.097656 C 857.128906 5.820312 856.722656 8.722656 855.835938 10.675781 C 855.488281 11.4375 855.070312 12.054688 854.546875 12.574219 C 852.785156 14.339844 849.949219 14.929688 844.058594 15.5 C 843.089844 15.421875 842.109375 15.351562 841.109375 15.292969 C 827.734375 14.476562 812.617188 15.144531 796.183594 17.28125 C 779.175781 19.492188 761.488281 23.1875 743.617188 28.261719 C 725.746094 33.335938 708.761719 39.488281 693.128906 46.546875 C 678.023438 53.363281 664.8125 60.738281 653.859375 68.464844 C 642.894531 76.199219 634.738281 83.898438 629.625 91.351562 C 624.296875 99.113281 622.511719 106.277344 624.316406 112.640625 Z M 630.152344 91.722656 C 635.222656 84.332031 643.324219 76.6875 654.230469 68.996094 C 676.691406 53.15625 708.5 38.910156 743.792969 28.890625 C 779.089844 18.867188 813.636719 14.269531 841.070312 15.945312 C 844.792969 16.171875 848.328125 16.511719 851.667969 16.960938 C 851.96875 17.058594 852.25 17.167969 852.515625 17.28125 C 853.339844 17.636719 853.996094 18.078125 854.546875 18.628906 C 856.40625 20.488281 856.957031 23.535156 857.566406 30.109375 L 857.570312 30.109375 C 857.984375 25.632812 858.371094 22.789062 859.164062 20.84375 C 859.175781 20.8125 859.1875 20.78125 859.199219 20.753906 C 859.210938 20.722656 859.226562 20.691406 859.238281 20.660156 C 859.25 20.636719 859.257812 20.617188 859.265625 20.59375 C 859.285156 20.550781 859.304688 20.507812 859.324219 20.464844 C 859.34375 20.421875 859.363281 20.382812 859.386719 20.339844 C 859.714844 19.664062 860.109375 19.105469 860.585938 18.625 C 860.613281 18.597656 860.640625 18.570312 860.667969 18.546875 C 865.484375 19.617188 869.769531 20.980469 873.496094 22.625 C 881.925781 26.351562 887.085938 31.367188 888.839844 37.539062 C 890.59375 43.710938 888.835938 50.691406 883.621094 58.292969 C 878.550781 65.679688 870.449219 73.324219 859.546875 81.015625 C 837.082031 96.859375 805.273438 111.101562 769.980469 121.121094 C 734.6875 131.144531 700.140625 135.742188 672.703125 134.066406 C 672.035156 134.027344 671.375 133.980469 670.722656 133.933594 C 667.019531 133.433594 664.960938 132.777344 663.570312 131.382812 C 663.089844 130.902344 662.699219 130.34375 662.367188 129.667969 C 662.347656 129.628906 662.328125 129.585938 662.308594 129.542969 C 662.289062 129.5 662.269531 129.457031 662.25 129.417969 C 662.242188 129.394531 662.230469 129.375 662.222656 129.351562 C 662.210938 129.320312 662.195312 129.289062 662.179688 129.253906 C 662.167969 129.226562 662.15625 129.199219 662.144531 129.167969 C 661.351562 127.222656 660.964844 124.378906 660.554688 119.902344 L 660.546875 119.902344 C 660.113281 124.625 659.703125 127.527344 658.820312 129.480469 C 658.472656 130.242188 658.054688 130.859375 657.53125 131.382812 C 657.238281 131.671875 656.917969 131.933594 656.558594 132.164062 C 650.316406 131.011719 644.871094 129.414062 640.28125 127.382812 C 631.851562 123.65625 626.6875 118.640625 624.933594 112.46875 C 623.179688 106.296875 624.9375 99.316406 630.152344 91.714844 Z M 630.152344 91.722656 " fill-opacity="1" fill-rule="nonzero"/></g><g clip-path="url(#8819968f31)"><path fill="#ffffff" d="M 588.144531 30.707031 C 576.050781 31.164062 575.679688 31.53125 575.226562 43.625 C 574.769531 31.53125 574.398438 31.164062 562.304688 30.707031 C 574.398438 30.25 574.769531 29.882812 575.226562 17.789062 C 575.679688 29.882812 576.050781 30.25 588.144531 30.707031 " fill-opacity="1" fill-rule="nonzero"/></g><g clip-path="url(#31fa3faf93)"><path fill="#ffffff" d="M 595.359375 40.910156 C 588.621094 41.164062 588.417969 41.367188 588.164062 48.105469 C 587.910156 41.367188 587.703125 41.164062 580.96875 40.910156 C 587.703125 40.65625 587.910156 40.449219 588.164062 33.710938 C 588.417969 40.449219 588.621094 40.65625 595.359375 40.910156 " fill-opacity="1" fill-rule="nonzero"/></g><g clip-path="url(#a77d963161)"><path fill="#ffffff" d="M 591.128906 20.628906 C 586.371094 20.808594 586.226562 20.953125 586.046875 25.710938 C 585.867188 20.953125 585.722656 20.808594 580.96875 20.628906 C 585.722656 20.449219 585.867188 20.304688 586.046875 15.550781 C 586.226562 20.304688 586.371094 20.449219 591.128906 20.628906 " fill-opacity="1" fill-rule="nonzero"/></g><g fill="#c88b85" fill-opacity="1"><g transform="translate(650.848612, 101.667601)"><g><path d="M 34.84375 -22.140625 C 32.613281 -19.140625 27.378906 -12.53125 22.058594 -12.53125 L 19.222656 -12.53125 C 16.390625 -15.535156 16.050781 -26.261719 16.050781 -32.011719 C 16.050781 -38.019531 16.390625 -49.261719 19.566406 -51.75 C 20.511719 -52.4375 20.511719 -53.8125 18.710938 -53.8125 L 0.859375 -53.8125 C 0 -53.8125 -0.34375 -52.78125 0.515625 -52.09375 C 3.519531 -49.863281 4.035156 -47.890625 4.035156 -44.800781 L 4.035156 -19.222656 C 4.035156 -16.050781 3.519531 -14.160156 0.515625 -11.929688 C -0.34375 -11.242188 0 -10.128906 0.859375 -10.128906 L 32.785156 -10.128906 C 34.414062 -10.128906 34.929688 -10.8125 35.101562 -12.53125 C 35.359375 -14.847656 36.648438 -21.199219 36.648438 -21.800781 C 36.648438 -22.742188 35.53125 -23 34.84375 -22.140625 Z M 34.84375 -22.140625 "/></g></g></g><g fill="#c88b85" fill-opacity="1"><g transform="translate(689.125263, 101.667601)"><g><path d="M 34.414062 -11.929688 C 31.410156 -14.160156 30.898438 -16.050781 30.898438 -19.222656 L 30.898438 -26.261719 C 30.898438 -35.53125 23.945312 -41.882812 14.761719 -41.882812 C 6.867188 -41.882812 2.574219 -37.933594 2.574219 -34.242188 C 2.574219 -29.265625 15.449219 -30.980469 13.644531 -35.1875 C 12.617188 -37.417969 12.617188 -39.480469 13.902344 -39.480469 C 16.992188 -39.480469 18.882812 -33.816406 18.882812 -28.835938 L 18.882812 -26.261719 C 16.992188 -28.75 13.902344 -30.382812 10.46875 -30.382812 C 4.71875 -30.382812 0 -25.832031 0 -20.253906 C 0 -14.675781 4.71875 -10.128906 10.46875 -10.128906 C 13.902344 -10.128906 16.992188 -11.757812 18.882812 -14.246094 C 18.882812 -14.246094 20.683594 -10.128906 25.316406 -10.128906 L 34.070312 -10.128906 C 35.015625 -10.128906 35.273438 -11.242188 34.414062 -11.929688 Z M 14.246094 -14.761719 C 11.929688 -14.761719 10.042969 -17.25 10.042969 -20.253906 C 10.042969 -23.257812 11.929688 -25.746094 14.246094 -25.746094 C 16.648438 -25.746094 18.539062 -23.257812 18.539062 -20.253906 C 18.539062 -17.25 16.648438 -14.761719 14.246094 -14.761719 Z M 14.246094 -14.761719 "/></g></g></g><g fill="#c88b85" fill-opacity="1"><g transform="translate(725.94294, 101.667601)"><g><path d="M 11.84375 -37.246094 C 12.273438 -40.164062 16.390625 -40.507812 16.050781 -35.789062 C 15.363281 -28.234375 29.867188 -29.523438 26.863281 -36.132812 C 24.976562 -40.335938 18.539062 -41.96875 13.132812 -41.882812 L 12.960938 -41.882812 C 5.320312 -41.625 -0.6875 -37.589844 0.0859375 -31.238281 C 1.117188 -22.65625 17.164062 -22.058594 15.449219 -14.761719 C 14.847656 -11.929688 10.898438 -11.5 11.328125 -16.21875 C 11.929688 -23.773438 -2.574219 -22.484375 0.429688 -15.878906 C 2.316406 -11.757812 8.667969 -10.042969 14.160156 -10.128906 L 14.332031 -10.214844 C 21.800781 -10.382812 28.0625 -15.535156 27.292969 -20.339844 C 26.003906 -28.234375 10.554688 -29.867188 11.84375 -37.246094 Z M 11.84375 -37.246094 "/></g></g></g><g fill="#c88b85" fill-opacity="1"><g transform="translate(755.036632, 101.667601)"><g><path d="M 41.96875 -11.929688 C 39.050781 -14.160156 38.449219 -16.050781 38.449219 -19.222656 L 38.449219 -24.890625 C 38.449219 -34.328125 32.613281 -41.882812 23.257812 -41.882812 C 19.910156 -41.882812 17.335938 -39.992188 15.449219 -37.589844 C 15.621094 -42.3125 16.050781 -47.117188 16.90625 -51.664062 C 17.078125 -52.78125 17.851562 -54.242188 16.050781 -53.8125 C 12.875 -53.210938 9.097656 -47.546875 0.859375 -47.546875 C 0 -47.546875 -0.34375 -46.515625 0.515625 -45.828125 C 3.519531 -43.597656 4.035156 -41.710938 4.035156 -38.535156 L 4.035156 -19.222656 C 4.035156 -16.050781 3.519531 -14.160156 0.515625 -11.929688 C -0.34375 -11.242188 0 -10.128906 0.859375 -10.128906 L 17.851562 -10.128906 C 19.738281 -10.128906 19.652344 -11.585938 18.796875 -12.273438 C 16.734375 -13.816406 15.363281 -22.65625 15.363281 -33.042969 C 16.992188 -36.390625 19.222656 -38.277344 20.769531 -38.277344 C 26.691406 -38.277344 29.265625 -17.25 23.6875 -12.273438 C 22.914062 -11.5 22.828125 -10.128906 24.632812 -10.128906 L 41.710938 -10.128906 C 42.570312 -10.128906 42.910156 -11.242188 41.96875 -11.929688 Z M 41.96875 -11.929688 "/></g></g></g><g fill="#c88b85" fill-opacity="1"><g transform="translate(799.578308, 101.667601)"><g><path d="M 30.554688 -19.996094 C 28.148438 -16.820312 22.914062 -15.707031 19.738281 -16.5625 C 16.304688 -17.59375 14.417969 -19.996094 13.558594 -22.828125 C 15.363281 -22.058594 17.335938 -21.542969 19.566406 -21.542969 C 26.261719 -21.542969 31.753906 -26.089844 31.753906 -31.667969 C 31.753906 -37.332031 24.546875 -41.882812 17.851562 -41.882812 C 7.550781 -41.882812 0 -34.757812 0 -26.003906 C 0 -17.25 7.636719 -10.128906 17.164062 -10.128906 C 23.773438 -10.128906 29.523438 -13.644531 32.355469 -18.710938 C 32.871094 -19.652344 31.410156 -21.113281 30.554688 -19.996094 Z M 17.421875 -39.480469 C 19.738281 -39.480469 21.371094 -35.960938 21.371094 -31.667969 C 21.371094 -27.464844 19.738281 -23.945312 17.421875 -23.945312 C 15.363281 -23.945312 13.21875 -26.777344 13.21875 -31.324219 C 13.21875 -36.820312 16.050781 -39.480469 17.421875 -39.480469 Z M 17.421875 -39.480469 "/></g></g></g><g fill="#c88b85" fill-opacity="1"><g transform="translate(833.821319, 101.667601)"><g><path d="M 11.84375 -37.246094 C 12.273438 -40.164062 16.390625 -40.507812 16.050781 -35.789062 C 15.363281 -28.234375 29.867188 -29.523438 26.863281 -36.132812 C 24.976562 -40.335938 18.539062 -41.96875 13.132812 -41.882812 L 12.960938 -41.882812 C 5.320312 -41.625 -0.6875 -37.589844 0.0859375 -31.238281 C 1.117188 -22.65625 17.164062 -22.058594 15.449219 -14.761719 C 14.847656 -11.929688 10.898438 -11.5 11.328125 -16.21875 C 11.929688 -23.773438 -2.574219 -22.484375 0.429688 -15.878906 C 2.316406 -11.757812 8.667969 -10.042969 14.160156 -10.128906 L 14.332031 -10.214844 C 21.800781 -10.382812 28.0625 -15.535156 27.292969 -20.339844 C 26.003906 -28.234375 10.554688 -29.867188 11.84375 -37.246094 Z M 11.84375 -37.246094 "/></g></g></g><g clip-path="url(#c73d76f2a5)"><path fill="#ffffff" d="M 911.855469 124.554688 C 923.949219 125.007812 924.316406 125.378906 924.773438 137.472656 C 925.230469 125.378906 925.597656 125.007812 937.691406 124.554688 C 925.597656 124.097656 925.230469 123.730469 924.773438 111.636719 C 924.316406 123.730469 923.949219 124.097656 911.855469 124.554688 " fill-opacity="1" fill-rule="nonzero"/></g><g clip-path="url(#2293455512)"><path fill="#ffffff" d="M 904.640625 134.753906 C 911.375 135.007812 911.582031 135.214844 911.835938 141.953125 C 912.089844 135.214844 912.292969 135.007812 919.03125 134.753906 C 912.292969 134.5 912.089844 134.296875 911.835938 127.558594 C 911.582031 134.296875 911.375 134.5 904.640625 134.753906 " fill-opacity="1" fill-rule="nonzero"/></g><g clip-path="url(#397b719adc)"><path fill="#ffffff" d="M 908.871094 114.476562 C 913.625 114.65625 913.769531 114.800781 913.949219 119.558594 C 914.128906 114.800781 914.273438 114.65625 919.03125 114.476562 C 914.273438 114.296875 914.128906 114.152344 913.949219 109.398438 C 913.769531 114.152344 913.625 114.296875 908.871094 114.476562 " fill-opacity="1" fill-rule="nonzero"/></g><g fill="#ffffff" fill-opacity="1"><g transform="translate(649.009492, 99.828455)"><g><path d="M 34.84375 -22.140625 C 32.613281 -19.140625 27.378906 -12.53125 22.058594 -12.53125 L 19.222656 -12.53125 C 16.390625 -15.535156 16.050781 -26.261719 16.050781 -32.011719 C 16.050781 -38.019531 16.390625 -49.261719 19.566406 -51.75 C 20.511719 -52.4375 20.511719 -53.8125 18.710938 -53.8125 L 0.859375 -53.8125 C 0 -53.8125 -0.34375 -52.78125 0.515625 -52.09375 C 3.519531 -49.863281 4.035156 -47.890625 4.035156 -44.800781 L 4.035156 -19.222656 C 4.035156 -16.050781 3.519531 -14.160156 0.515625 -11.929688 C -0.34375 -11.242188 0 -10.128906 0.859375 -10.128906 L 32.785156 -10.128906 C 34.414062 -10.128906 34.929688 -10.8125 35.101562 -12.53125 C 35.359375 -14.847656 36.648438 -21.199219 36.648438 -21.800781 C 36.648438 -22.742188 35.53125 -23 34.84375 -22.140625 Z M 34.84375 -22.140625 "/></g></g></g><g fill="#ffffff" fill-opacity="1"><g transform="translate(687.286143, 99.828455)"><g><path d="M 34.414062 -11.929688 C 31.410156 -14.160156 30.898438 -16.050781 30.898438 -19.222656 L 30.898438 -26.261719 C 30.898438 -35.53125 23.945312 -41.882812 14.761719 -41.882812 C 6.867188 -41.882812 2.574219 -37.933594 2.574219 -34.242188 C 2.574219 -29.265625 15.449219 -30.980469 13.644531 -35.1875 C 12.617188 -37.417969 12.617188 -39.480469 13.902344 -39.480469 C 16.992188 -39.480469 18.882812 -33.816406 18.882812 -28.835938 L 18.882812 -26.261719 C 16.992188 -28.75 13.902344 -30.382812 10.46875 -30.382812 C 4.71875 -30.382812 0 -25.832031 0 -20.253906 C 0 -14.675781 4.71875 -10.128906 10.46875 -10.128906 C 13.902344 -10.128906 16.992188 -11.757812 18.882812 -14.246094 C 18.882812 -14.246094 20.683594 -10.128906 25.316406 -10.128906 L 34.070312 -10.128906 C 35.015625 -10.128906 35.273438 -11.242188 34.414062 -11.929688 Z M 14.246094 -14.761719 C 11.929688 -14.761719 10.042969 -17.25 10.042969 -20.253906 C 10.042969 -23.257812 11.929688 -25.746094 14.246094 -25.746094 C 16.648438 -25.746094 18.539062 -23.257812 18.539062 -20.253906 C 18.539062 -17.25 16.648438 -14.761719 14.246094 -14.761719 Z M 14.246094 -14.761719 "/></g></g></g><g fill="#ffffff" fill-opacity="1"><g transform="translate(724.10382, 99.828455)"><g><path d="M 11.84375 -37.246094 C 12.273438 -40.164062 16.390625 -40.507812 16.050781 -35.789062 C 15.363281 -28.234375 29.867188 -29.523438 26.863281 -36.132812 C 24.976562 -40.335938 18.539062 -41.96875 13.132812 -41.882812 L 12.960938 -41.882812 C 5.320312 -41.625 -0.6875 -37.589844 0.0859375 -31.238281 C 1.117188 -22.65625 17.164062 -22.058594 15.449219 -14.761719 C 14.847656 -11.929688 10.898438 -11.5 11.328125 -16.21875 C 11.929688 -23.773438 -2.574219 -22.484375 0.429688 -15.878906 C 2.316406 -11.757812 8.667969 -10.042969 14.160156 -10.128906 L 14.332031 -10.214844 C 21.800781 -10.382812 28.0625 -15.535156 27.292969 -20.339844 C 26.003906 -28.234375 10.554688 -29.867188 11.84375 -37.246094 Z M 11.84375 -37.246094 "/></g></g></g><g fill="#ffffff" fill-opacity="1"><g transform="translate(753.197513, 99.828455)"><g><path d="M 41.96875 -11.929688 C 39.050781 -14.160156 38.449219 -16.050781 38.449219 -19.222656 L 38.449219 -24.890625 C 38.449219 -34.328125 32.613281 -41.882812 23.257812 -41.882812 C 19.910156 -41.882812 17.335938 -39.992188 15.449219 -37.589844 C 15.621094 -42.3125 16.050781 -47.117188 16.90625 -51.664062 C 17.078125 -52.78125 17.851562 -54.242188 16.050781 -53.8125 C 12.875 -53.210938 9.097656 -47.546875 0.859375 -47.546875 C 0 -47.546875 -0.34375 -46.515625 0.515625 -45.828125 C 3.519531 -43.597656 4.035156 -41.710938 4.035156 -38.535156 L 4.035156 -19.222656 C 4.035156 -16.050781 3.519531 -14.160156 0.515625 -11.929688 C -0.34375 -11.242188 0 -10.128906 0.859375 -10.128906 L 17.851562 -10.128906 C 19.738281 -10.128906 19.652344 -11.585938 18.796875 -12.273438 C 16.734375 -13.816406 15.363281 -22.65625 15.363281 -33.042969 C 16.992188 -36.390625 19.222656 -38.277344 20.769531 -38.277344 C 26.691406 -38.277344 29.265625 -17.25 23.6875 -12.273438 C 22.914062 -11.5 22.828125 -10.128906 24.632812 -10.128906 L 41.710938 -10.128906 C 42.570312 -10.128906 42.910156 -11.242188 41.96875 -11.929688 Z M 41.96875 -11.929688 "/></g></g></g><g fill="#ffffff" fill-opacity="1"><g transform="translate(797.739188, 99.828455)"><g><path d="M 30.554688 -19.996094 C 28.148438 -16.820312 22.914062 -15.707031 19.738281 -16.5625 C 16.304688 -17.59375 14.417969 -19.996094 13.558594 -22.828125 C 15.363281 -22.058594 17.335938 -21.542969 19.566406 -21.542969 C 26.261719 -21.542969 31.753906 -26.089844 31.753906 -31.667969 C 31.753906 -37.332031 24.546875 -41.882812 17.851562 -41.882812 C 7.550781 -41.882812 0 -34.757812 0 -26.003906 C 0 -17.25 7.636719 -10.128906 17.164062 -10.128906 C 23.773438 -10.128906 29.523438 -13.644531 32.355469 -18.710938 C 32.871094 -19.652344 31.410156 -21.113281 30.554688 -19.996094 Z M 17.421875 -39.480469 C 19.738281 -39.480469 21.371094 -35.960938 21.371094 -31.667969 C 21.371094 -27.464844 19.738281 -23.945312 17.421875 -23.945312 C 15.363281 -23.945312 13.21875 -26.777344 13.21875 -31.324219 C 13.21875 -36.820312 16.050781 -39.480469 17.421875 -39.480469 Z M 17.421875 -39.480469 "/></g></g></g><g fill="#ffffff" fill-opacity="1"><g transform="translate(831.982199, 99.828455)"><g><path d="M 11.84375 -37.246094 C 12.273438 -40.164062 16.390625 -40.507812 16.050781 -35.789062 C 15.363281 -28.234375 29.867188 -29.523438 26.863281 -36.132812 C 24.976562 -40.335938 18.539062 -41.96875 13.132812 -41.882812 L 12.960938 -41.882812 C 5.320312 -41.625 -0.6875 -37.589844 0.0859375 -31.238281 C 1.117188 -22.65625 17.164062 -22.058594 15.449219 -14.761719 C 14.847656 -11.929688 10.898438 -11.5 11.328125 -16.21875 C 11.929688 -23.773438 -2.574219 -22.484375 0.429688 -15.878906 C 2.316406 -11.757812 8.667969 -10.042969 14.160156 -10.128906 L 14.332031 -10.214844 C 21.800781 -10.382812 28.0625 -15.535156 27.292969 -20.339844 C 26.003906 -28.234375 10.554688 -29.867188 11.84375 -37.246094 Z M 11.84375 -37.246094 "/></g></g></g></svg>