<svg xmlns="http://www.w3.org/2000/svg" xmlns:xlink="http://www.w3.org/1999/xlink" width="211" zoomAndPan="magnify" viewBox="0 0 158.25 56.249996" height="75" preserveAspectRatio="xMidYMid meet" version="1.0"><defs><g/></defs><g fill="#c88b85" fill-opacity="1"><g transform="translate(33.716453, 37.834949)"><g><path d="M 8.578125 -20.925781 L 0.332031 -20.925781 C 0 -20.925781 -0.132812 -20.527344 0.199219 -20.261719 C 1.367188 -19.390625 1.570312 -18.625 1.570312 -17.421875 L 1.570312 -7.476562 C 1.570312 -6.242188 1.367188 -5.507812 0.199219 -4.640625 C -0.132812 -4.371094 0 -3.9375 0.332031 -3.9375 L 7.042969 -3.9375 C 7.742188 -3.9375 7.742188 -4.507812 7.375 -4.773438 C 6.375 -5.539062 6.242188 -8.609375 6.242188 -10.980469 L 8.578125 -10.980469 C 11.714844 -10.980469 14.285156 -13.21875 14.285156 -15.953125 C 14.285156 -18.691406 11.714844 -20.925781 8.578125 -20.925781 Z M 6.242188 -11.980469 L 6.242188 -12.449219 C 6.242188 -14.550781 6.175781 -18.289062 7.042969 -19.726562 C 8.476562 -19.160156 9.511719 -17.691406 9.511719 -15.953125 C 9.511719 -13.953125 8.078125 -12.25 6.242188 -11.980469 Z M 6.242188 -11.980469 "/></g></g></g><g fill="#c88b85" fill-opacity="1"><g transform="translate(47.734038, 37.834949)"><g><path d="M 6.675781 -16.289062 C 2.96875 -16.289062 0 -13.519531 0 -10.113281 C 0 -6.707031 2.96875 -3.9375 6.675781 -3.9375 C 10.347656 -3.9375 13.316406 -6.707031 13.316406 -10.113281 C 13.316406 -13.519531 10.347656 -16.289062 6.675781 -16.289062 Z M 6.675781 -4.871094 C 5.605469 -4.871094 4.738281 -7.242188 4.738281 -10.113281 C 4.738281 -13.015625 5.605469 -15.351562 6.675781 -15.351562 C 7.710938 -15.351562 8.578125 -13.015625 8.578125 -10.113281 C 8.578125 -7.242188 7.710938 -4.871094 6.675781 -4.871094 Z M 6.675781 -4.871094 "/></g></g></g><g fill="#c88b85" fill-opacity="1"><g transform="translate(61.918499, 37.834949)"><g><path d="M 7.308594 -4.773438 C 6.074219 -5.707031 5.40625 -13.71875 6.574219 -20.09375 C 6.640625 -20.527344 6.941406 -21.09375 6.242188 -20.925781 C 5.007812 -20.695312 3.539062 -18.492188 0.332031 -18.492188 C 0 -18.492188 -0.132812 -18.089844 0.199219 -17.824219 C 1.367188 -16.957031 1.570312 -16.222656 1.570312 -14.984375 L 1.570312 -7.476562 C 1.570312 -6.242188 1.367188 -5.507812 0.199219 -4.640625 C -0.132812 -4.371094 0 -3.9375 0.332031 -3.9375 L 6.941406 -3.9375 C 7.675781 -3.9375 7.644531 -4.507812 7.308594 -4.773438 Z M 7.308594 -4.773438 "/></g></g></g><g fill="#c88b85" fill-opacity="1"><g transform="translate(70.028674, 37.834949)"><g><path d="M 6.84375 -3.9375 C 7.542969 -3.9375 7.542969 -4.507812 7.175781 -4.773438 C 5.941406 -5.707031 5.539062 -9.480469 6.441406 -15.421875 C 6.507812 -15.855469 6.84375 -16.386719 6.140625 -16.253906 C 4.871094 -15.988281 3.539062 -13.816406 0.332031 -13.816406 C 0 -13.816406 -0.132812 -13.417969 0.199219 -13.152344 C 1.367188 -12.25 1.570312 -11.515625 1.570312 -10.28125 L 1.570312 -7.476562 C 1.570312 -6.242188 1.367188 -5.507812 0.199219 -4.640625 C -0.132812 -4.371094 0 -3.9375 0.332031 -3.9375 Z M 2.503906 -16.054688 C 3.871094 -16.054688 5.207031 -17.15625 5.507812 -18.492188 C 5.808594 -19.859375 4.941406 -20.925781 3.605469 -20.925781 C 2.234375 -20.925781 0.902344 -19.859375 0.601562 -18.492188 C 0.300781 -17.15625 1.167969 -16.054688 2.503906 -16.054688 Z M 2.503906 -16.054688 "/></g></g></g><g fill="#c88b85" fill-opacity="1"><g transform="translate(78.272347, 37.834949)"><g><path d="M 7.34375 -15.351562 C 8.476562 -15.351562 8.34375 -13.484375 8.542969 -11.046875 C 8.777344 -8.609375 13.816406 -10.746094 12.515625 -13.050781 C 11.25 -15.320312 9.210938 -16.289062 6.675781 -16.289062 C 2.96875 -16.289062 0 -13.519531 0 -10.113281 C 0 -6.707031 2.96875 -3.9375 6.675781 -3.9375 C 9.246094 -3.9375 11.480469 -5.308594 12.582031 -7.277344 C 12.785156 -7.644531 12.214844 -8.210938 11.882812 -7.777344 C 10.949219 -6.542969 8.910156 -6.109375 7.675781 -6.441406 C 3.136719 -7.742188 5.507812 -15.351562 7.34375 -15.351562 Z M 7.34375 -15.351562 "/></g></g></g><g fill="#c88b85" fill-opacity="1"><g transform="translate(91.622426, 37.834949)"><g><path d="M 6.84375 -3.9375 C 7.542969 -3.9375 7.542969 -4.507812 7.175781 -4.773438 C 5.941406 -5.707031 5.539062 -9.480469 6.441406 -15.421875 C 6.507812 -15.855469 6.84375 -16.386719 6.140625 -16.253906 C 4.871094 -15.988281 3.539062 -13.816406 0.332031 -13.816406 C 0 -13.816406 -0.132812 -13.417969 0.199219 -13.152344 C 1.367188 -12.25 1.570312 -11.515625 1.570312 -10.28125 L 1.570312 -7.476562 C 1.570312 -6.242188 1.367188 -5.507812 0.199219 -4.640625 C -0.132812 -4.371094 0 -3.9375 0.332031 -3.9375 Z M 2.503906 -16.054688 C 3.871094 -16.054688 5.207031 -17.15625 5.507812 -18.492188 C 5.808594 -19.859375 4.941406 -20.925781 3.605469 -20.925781 C 2.234375 -20.925781 0.902344 -19.859375 0.601562 -18.492188 C 0.300781 -17.15625 1.167969 -16.054688 2.503906 -16.054688 Z M 2.503906 -16.054688 "/></g></g></g><g fill="#c88b85" fill-opacity="1"><g transform="translate(99.866098, 37.834949)"><g><path d="M 11.882812 -7.777344 C 10.949219 -6.542969 8.910156 -6.109375 7.675781 -6.441406 C 6.339844 -6.84375 5.605469 -7.777344 5.273438 -8.878906 C 5.972656 -8.578125 6.742188 -8.378906 7.609375 -8.378906 C 10.214844 -8.378906 12.347656 -10.148438 12.347656 -12.316406 C 12.347656 -14.519531 9.546875 -16.289062 6.941406 -16.289062 C 2.9375 -16.289062 0 -13.519531 0 -10.113281 C 0 -6.707031 2.96875 -3.9375 6.675781 -3.9375 C 9.246094 -3.9375 11.480469 -5.308594 12.582031 -7.277344 C 12.785156 -7.644531 12.214844 -8.210938 11.882812 -7.777344 Z M 6.777344 -15.351562 C 7.675781 -15.351562 8.3125 -13.984375 8.3125 -12.316406 C 8.3125 -10.679688 7.675781 -9.3125 6.777344 -9.3125 C 5.972656 -9.3125 5.140625 -10.414062 5.140625 -12.183594 C 5.140625 -14.320312 6.242188 -15.351562 6.777344 -15.351562 Z M 6.777344 -15.351562 "/></g></g></g><g fill="#c88b85" fill-opacity="1"><g transform="translate(113.182803, 37.834949)"><g><path d="M 4.605469 -14.484375 C 4.773438 -15.621094 6.375 -15.753906 6.242188 -13.917969 C 5.972656 -10.980469 11.613281 -11.480469 10.445312 -14.050781 C 9.710938 -15.6875 7.210938 -16.320312 5.105469 -16.289062 L 5.039062 -16.289062 C 2.070312 -16.1875 -0.265625 -14.617188 0.0351562 -12.148438 C 0.433594 -8.8125 6.675781 -8.578125 6.007812 -5.742188 C 5.773438 -4.640625 4.238281 -4.472656 4.40625 -6.308594 C 4.640625 -9.246094 -1 -8.746094 0.167969 -6.175781 C 0.902344 -4.574219 3.371094 -3.90625 5.507812 -3.9375 L 5.574219 -3.972656 C 8.476562 -4.039062 10.914062 -6.042969 10.613281 -7.910156 C 10.113281 -10.980469 4.105469 -11.613281 4.605469 -14.484375 Z M 4.605469 -14.484375 "/></g></g></g><g fill="#000000" fill-opacity="1"><g transform="translate(33.001217, 37.119712)"><g><path d="M 8.578125 -20.925781 L 0.332031 -20.925781 C 0 -20.925781 -0.132812 -20.527344 0.199219 -20.261719 C 1.367188 -19.390625 1.570312 -18.625 1.570312 -17.421875 L 1.570312 -7.476562 C 1.570312 -6.242188 1.367188 -5.507812 0.199219 -4.640625 C -0.132812 -4.371094 0 -3.9375 0.332031 -3.9375 L 7.042969 -3.9375 C 7.742188 -3.9375 7.742188 -4.507812 7.375 -4.773438 C 6.375 -5.539062 6.242188 -8.609375 6.242188 -10.980469 L 8.578125 -10.980469 C 11.714844 -10.980469 14.285156 -13.21875 14.285156 -15.953125 C 14.285156 -18.691406 11.714844 -20.925781 8.578125 -20.925781 Z M 6.242188 -11.980469 L 6.242188 -12.449219 C 6.242188 -14.550781 6.175781 -18.289062 7.042969 -19.726562 C 8.476562 -19.160156 9.511719 -17.691406 9.511719 -15.953125 C 9.511719 -13.953125 8.078125 -12.25 6.242188 -11.980469 Z M 6.242188 -11.980469 "/></g></g></g><g fill="#000000" fill-opacity="1"><g transform="translate(47.018802, 37.119712)"><g><path d="M 6.675781 -16.289062 C 2.96875 -16.289062 0 -13.519531 0 -10.113281 C 0 -6.707031 2.96875 -3.9375 6.675781 -3.9375 C 10.347656 -3.9375 13.316406 -6.707031 13.316406 -10.113281 C 13.316406 -13.519531 10.347656 -16.289062 6.675781 -16.289062 Z M 6.675781 -4.871094 C 5.605469 -4.871094 4.738281 -7.242188 4.738281 -10.113281 C 4.738281 -13.015625 5.605469 -15.351562 6.675781 -15.351562 C 7.710938 -15.351562 8.578125 -13.015625 8.578125 -10.113281 C 8.578125 -7.242188 7.710938 -4.871094 6.675781 -4.871094 Z M 6.675781 -4.871094 "/></g></g></g><g fill="#000000" fill-opacity="1"><g transform="translate(61.203263, 37.119712)"><g><path d="M 7.308594 -4.773438 C 6.074219 -5.707031 5.40625 -13.71875 6.574219 -20.09375 C 6.640625 -20.527344 6.941406 -21.09375 6.242188 -20.925781 C 5.007812 -20.695312 3.539062 -18.492188 0.332031 -18.492188 C 0 -18.492188 -0.132812 -18.089844 0.199219 -17.824219 C 1.367188 -16.957031 1.570312 -16.222656 1.570312 -14.984375 L 1.570312 -7.476562 C 1.570312 -6.242188 1.367188 -5.507812 0.199219 -4.640625 C -0.132812 -4.371094 0 -3.9375 0.332031 -3.9375 L 6.941406 -3.9375 C 7.675781 -3.9375 7.644531 -4.507812 7.308594 -4.773438 Z M 7.308594 -4.773438 "/></g></g></g><g fill="#000000" fill-opacity="1"><g transform="translate(69.313438, 37.119712)"><g><path d="M 6.84375 -3.9375 C 7.542969 -3.9375 7.542969 -4.507812 7.175781 -4.773438 C 5.941406 -5.707031 5.539062 -9.480469 6.441406 -15.421875 C 6.507812 -15.855469 6.84375 -16.386719 6.140625 -16.253906 C 4.871094 -15.988281 3.539062 -13.816406 0.332031 -13.816406 C 0 -13.816406 -0.132812 -13.417969 0.199219 -13.152344 C 1.367188 -12.25 1.570312 -11.515625 1.570312 -10.28125 L 1.570312 -7.476562 C 1.570312 -6.242188 1.367188 -5.507812 0.199219 -4.640625 C -0.132812 -4.371094 0 -3.9375 0.332031 -3.9375 Z M 2.503906 -16.054688 C 3.871094 -16.054688 5.207031 -17.15625 5.507812 -18.492188 C 5.808594 -19.859375 4.941406 -20.925781 3.605469 -20.925781 C 2.234375 -20.925781 0.902344 -19.859375 0.601562 -18.492188 C 0.300781 -17.15625 1.167969 -16.054688 2.503906 -16.054688 Z M 2.503906 -16.054688 "/></g></g></g><g fill="#000000" fill-opacity="1"><g transform="translate(77.55711, 37.119712)"><g><path d="M 7.34375 -15.351562 C 8.476562 -15.351562 8.34375 -13.484375 8.542969 -11.046875 C 8.777344 -8.609375 13.816406 -10.746094 12.515625 -13.050781 C 11.25 -15.320312 9.210938 -16.289062 6.675781 -16.289062 C 2.96875 -16.289062 0 -13.519531 0 -10.113281 C 0 -6.707031 2.96875 -3.9375 6.675781 -3.9375 C 9.246094 -3.9375 11.480469 -5.308594 12.582031 -7.277344 C 12.785156 -7.644531 12.214844 -8.210938 11.882812 -7.777344 C 10.949219 -6.542969 8.910156 -6.109375 7.675781 -6.441406 C 3.136719 -7.742188 5.507812 -15.351562 7.34375 -15.351562 Z M 7.34375 -15.351562 "/></g></g></g><g fill="#000000" fill-opacity="1"><g transform="translate(90.90719, 37.119712)"><g><path d="M 6.84375 -3.9375 C 7.542969 -3.9375 7.542969 -4.507812 7.175781 -4.773438 C 5.941406 -5.707031 5.539062 -9.480469 6.441406 -15.421875 C 6.507812 -15.855469 6.84375 -16.386719 6.140625 -16.253906 C 4.871094 -15.988281 3.539062 -13.816406 0.332031 -13.816406 C 0 -13.816406 -0.132812 -13.417969 0.199219 -13.152344 C 1.367188 -12.25 1.570312 -11.515625 1.570312 -10.28125 L 1.570312 -7.476562 C 1.570312 -6.242188 1.367188 -5.507812 0.199219 -4.640625 C -0.132812 -4.371094 0 -3.9375 0.332031 -3.9375 Z M 2.503906 -16.054688 C 3.871094 -16.054688 5.207031 -17.15625 5.507812 -18.492188 C 5.808594 -19.859375 4.941406 -20.925781 3.605469 -20.925781 C 2.234375 -20.925781 0.902344 -19.859375 0.601562 -18.492188 C 0.300781 -17.15625 1.167969 -16.054688 2.503906 -16.054688 Z M 2.503906 -16.054688 "/></g></g></g><g fill="#000000" fill-opacity="1"><g transform="translate(99.150862, 37.119712)"><g><path d="M 11.882812 -7.777344 C 10.949219 -6.542969 8.910156 -6.109375 7.675781 -6.441406 C 6.339844 -6.84375 5.605469 -7.777344 5.273438 -8.878906 C 5.972656 -8.578125 6.742188 -8.378906 7.609375 -8.378906 C 10.214844 -8.378906 12.347656 -10.148438 12.347656 -12.316406 C 12.347656 -14.519531 9.546875 -16.289062 6.941406 -16.289062 C 2.9375 -16.289062 0 -13.519531 0 -10.113281 C 0 -6.707031 2.96875 -3.9375 6.675781 -3.9375 C 9.246094 -3.9375 11.480469 -5.308594 12.582031 -7.277344 C 12.785156 -7.644531 12.214844 -8.210938 11.882812 -7.777344 Z M 6.777344 -15.351562 C 7.675781 -15.351562 8.3125 -13.984375 8.3125 -12.316406 C 8.3125 -10.679688 7.675781 -9.3125 6.777344 -9.3125 C 5.972656 -9.3125 5.140625 -10.414062 5.140625 -12.183594 C 5.140625 -14.320312 6.242188 -15.351562 6.777344 -15.351562 Z M 6.777344 -15.351562 "/></g></g></g><g fill="#000000" fill-opacity="1"><g transform="translate(112.467567, 37.119712)"><g><path d="M 4.605469 -14.484375 C 4.773438 -15.621094 6.375 -15.753906 6.242188 -13.917969 C 5.972656 -10.980469 11.613281 -11.480469 10.445312 -14.050781 C 9.710938 -15.6875 7.210938 -16.320312 5.105469 -16.289062 L 5.039062 -16.289062 C 2.070312 -16.1875 -0.265625 -14.617188 0.0351562 -12.148438 C 0.433594 -8.8125 6.675781 -8.578125 6.007812 -5.742188 C 5.773438 -4.640625 4.238281 -4.472656 4.40625 -6.308594 C 4.640625 -9.246094 -1 -8.746094 0.167969 -6.175781 C 0.902344 -4.574219 3.371094 -3.90625 5.507812 -3.9375 L 5.574219 -3.972656 C 8.476562 -4.039062 10.914062 -6.042969 10.613281 -7.910156 C 10.113281 -10.980469 4.105469 -11.613281 4.605469 -14.484375 Z M 4.605469 -14.484375 "/></g></g></g></svg>